{"glyphs":{"0":{"ha":938,"x_min":118,"x_max":819,"o":"m 819 86 l 658 -7 l 279 -7 l 118 86 l 118 886 l 279 979 l 658 979 l 819 886 l 819 86 m 313 813 l 313 160 l 625 160 l 625 813 l 313 813 z "},"1":{"ha":806,"x_min":118,"x_max":757,"o":"m 118 647 l 118 829 l 368 972 l 535 972 l 535 167 l 757 167 l 757 0 l 118 0 l 118 167 l 340 167 l 340 775 l 118 647 z "},"2":{"ha":889,"x_min":118,"x_max":771,"o":"m 313 167 l 771 167 l 771 0 l 118 0 l 118 457 l 279 550 l 576 550 l 576 806 l 313 806 l 313 681 l 118 681 l 118 879 l 279 972 l 610 972 l 771 879 l 771 476 l 610 383 l 313 383 l 313 167 z "},"3":{"ha":918,"x_min":118,"x_max":800,"o":"m 639 -7 l 279 -7 l 118 86 l 118 285 l 313 285 l 313 160 l 606 160 l 606 419 l 363 419 l 363 586 l 606 586 l 606 813 l 313 813 l 313 688 l 118 688 l 118 886 l 279 979 l 639 979 l 800 886 l 800 574 l 679 504 l 679 501 l 800 432 l 800 86 l 639 -7 z "},"4":{"ha":883,"x_min":49,"x_max":821,"o":"m 701 215 l 701 0 l 510 0 l 510 215 l 49 215 l 49 354 l 531 972 l 701 972 l 701 372 l 821 372 l 821 215 l 701 215 m 264 372 l 510 372 l 510 686 l 507 686 l 264 375 l 264 372 z "},"5":{"ha":910,"x_min":118,"x_max":792,"o":"m 340 806 l 340 619 l 631 619 l 792 526 l 792 86 l 631 -7 l 279 -7 l 118 86 l 118 285 l 313 285 l 313 160 l 597 160 l 597 453 l 146 453 l 146 972 l 778 972 l 778 806 l 340 806 z "},"6":{"ha":896,"x_min":118,"x_max":778,"o":"m 313 813 l 313 533 l 411 590 l 617 590 l 778 497 l 778 86 l 617 -7 l 279 -7 l 118 86 l 118 886 l 279 979 l 617 979 l 778 886 l 778 688 l 583 688 l 583 813 l 313 813 m 313 424 l 313 160 l 583 160 l 583 424 l 313 424 z "},"7":{"ha":868,"x_min":76,"x_max":806,"o":"m 414 0 l 210 0 l 583 803 l 583 806 l 271 806 l 271 681 l 76 681 l 76 972 l 806 972 l 806 847 l 414 0 z "},"8":{"ha":910,"x_min":118,"x_max":792,"o":"m 313 160 l 597 160 l 597 419 l 313 419 l 313 160 m 313 586 l 597 586 l 597 813 l 313 813 l 313 586 m 631 -7 l 257 -7 l 118 86 l 118 432 l 239 501 l 239 504 l 118 574 l 118 886 l 279 979 l 631 979 l 792 886 l 792 574 l 671 504 l 671 501 l 792 432 l 792 86 l 631 -7 z "},"9":{"ha":896,"x_min":118,"x_max":778,"o":"m 583 160 l 583 439 l 485 382 l 279 382 l 118 475 l 118 886 l 279 979 l 617 979 l 778 886 l 778 86 l 617 -7 l 279 -7 l 118 86 l 118 285 l 313 285 l 313 160 l 583 160 m 583 549 l 583 813 l 313 813 l 313 549 l 583 549 z "}," ":{"ha":361,"x_min":0,"x_max":0,"o":""},"!":{"ha":528,"x_min":132,"x_max":396,"o":"m 132 0 l 132 264 l 396 264 l 396 0 l 132 0 m 181 400 l 144 1014 l 383 1014 l 347 400 l 181 400 z "},"\"":{"ha":694,"x_min":90,"x_max":604,"o":"m 118 581 l 90 1014 l 299 1014 l 271 581 l 118 581 m 424 581 l 396 1014 l 604 1014 l 576 581 l 424 581 z "},"#":{"ha":1061,"x_min":76,"x_max":985,"o":"m 757 229 q 735 -26 747 100 l 563 -26 l 586 229 l 413 229 l 390 -26 l 218 -26 l 240 229 l 76 229 l 76 371 l 253 371 q 275 613 268 525 l 76 613 l 76 754 l 288 754 q 310 999 308 972 l 482 999 l 460 754 l 632 754 l 656 999 l 826 999 l 804 754 l 985 754 l 985 613 l 792 613 q 769 371 785 533 l 985 371 l 985 229 l 757 229 m 447 613 l 425 371 l 597 371 q 621 613 611 513 l 447 613 z "},"$":{"ha":910,"x_min":104,"x_max":792,"o":"m 543 -171 l 376 -171 l 376 -7 l 265 -7 l 104 86 l 104 271 l 299 271 l 299 160 l 597 160 l 597 400 l 279 400 l 118 493 l 118 886 l 279 979 l 376 979 l 376 1143 l 543 1143 l 543 979 l 631 979 l 792 886 l 792 701 l 597 701 l 597 813 l 313 813 l 313 581 l 631 581 l 792 488 l 792 86 l 631 -7 l 543 -7 l 543 -171 z "},"%":{"ha":1390,"x_min":104,"x_max":1286,"o":"m 611 589 l 450 496 l 265 496 l 104 589 l 104 893 l 265 986 l 450 986 l 611 893 l 611 589 m 272 832 l 272 650 l 443 650 l 443 832 l 272 832 m 961 986 l 1142 986 l 429 -14 l 249 -14 l 961 986 m 779 383 l 940 476 l 1125 476 l 1286 383 l 1286 79 l 1125 -14 l 940 -14 l 779 79 l 779 383 m 1118 140 l 1118 322 l 947 322 l 947 140 l 1118 140 z "},"&":{"ha":924,"x_min":118,"x_max":889,"o":"m 889 586 l 889 419 l 786 419 l 786 86 l 625 -7 l 279 -7 l 118 86 l 118 432 l 239 501 l 239 504 l 118 574 l 118 886 l 279 979 l 569 979 l 731 886 l 731 688 l 536 688 l 536 813 l 313 813 l 313 586 l 514 586 l 514 419 l 313 419 l 313 160 l 592 160 l 592 493 l 753 586 l 889 586 z "},"'":{"ha":389,"x_min":90,"x_max":299,"o":"m 118 581 l 90 1014 l 299 1014 l 271 581 l 118 581 z "},"(":{"ha":532,"x_min":118,"x_max":456,"o":"m 299 875 l 299 -139 l 456 -139 l 456 -278 l 279 -278 l 118 -185 l 118 921 l 279 1014 l 456 1014 l 456 875 l 299 875 z "},")":{"ha":532,"x_min":76,"x_max":414,"o":"m 233 -139 l 233 875 l 76 875 l 76 1014 l 253 1014 l 414 921 l 414 -185 l 253 -278 l 76 -278 l 76 -139 l 233 -139 z "},"*":{"ha":901,"x_min":104,"x_max":797,"o":"m 451 522 l 450 522 l 324 328 l 181 431 l 328 611 l 104 671 l 158 839 l 375 754 l 363 986 l 539 986 l 526 754 l 743 839 l 797 671 l 574 611 l 721 431 l 578 328 l 451 522 z "},"+":{"ha":847,"x_min":63,"x_max":785,"o":"m 63 454 l 331 454 l 331 722 l 517 722 l 517 454 l 785 454 l 785 268 l 517 268 l 517 0 l 331 0 l 331 268 l 63 268 l 63 454 z "},",":{"ha":528,"x_min":132,"x_max":396,"o":"m 132 -278 l 132 264 l 396 264 l 396 150 l 246 -278 l 132 -278 z "},"-":{"ha":622,"x_min":90,"x_max":532,"o":"m 90 275 l 90 451 l 532 451 l 532 275 l 90 275 z "},".":{"ha":528,"x_min":132,"x_max":396,"o":"m 132 0 l 132 264 l 396 264 l 396 0 l 132 0 z "},"/":{"ha":578,"x_min":35,"x_max":543,"o":"m 35 -28 l 363 1000 l 543 1000 l 215 -28 l 35 -28 z "},":":{"ha":528,"x_min":132,"x_max":396,"o":"m 132 0 l 132 264 l 396 264 l 396 0 l 132 0 m 132 458 l 132 722 l 396 722 l 396 458 l 132 458 z "},";":{"ha":528,"x_min":132,"x_max":396,"o":"m 132 -278 l 132 264 l 396 264 l 396 150 l 246 -278 l 132 -278 m 132 458 l 132 722 l 396 722 l 396 458 l 132 458 z "},"<":{"ha":917,"x_min":76,"x_max":799,"o":"m 799 696 l 799 510 l 306 349 l 306 346 l 799 185 l 799 -1 l 76 249 l 76 446 l 799 696 z "},"=":{"ha":958,"x_min":118,"x_max":840,"o":"m 840 275 l 840 103 l 118 103 l 118 275 l 840 275 m 840 592 l 840 419 l 118 419 l 118 592 l 840 592 z "},">":{"ha":917,"x_min":118,"x_max":840,"o":"m 118 510 l 118 696 l 840 446 l 840 249 l 118 -1 l 118 185 l 611 346 l 611 349 l 118 510 z "},"?":{"ha":819,"x_min":118,"x_max":701,"o":"m 440 522 l 428 400 l 275 400 l 261 596 l 422 689 l 507 689 l 507 847 l 313 847 l 313 722 l 118 722 l 118 921 l 279 1014 l 540 1014 l 701 921 l 701 615 l 540 522 l 440 522 m 219 0 l 219 264 l 483 264 l 483 0 l 219 0 z "},"@":{"ha":1417,"x_min":118,"x_max":1299,"o":"m 1138 -196 l 279 -196 l 118 -103 l 118 886 l 279 979 l 1138 979 l 1299 886 l 1299 144 l 1138 51 l 846 51 l 754 108 l 649 51 l 536 51 l 385 144 l 439 653 l 610 746 l 722 746 l 814 689 l 919 746 l 1011 746 l 954 204 l 1118 204 l 1118 826 l 299 826 l 299 -43 l 1138 -43 l 1138 -196 m 621 583 l 583 214 l 765 214 l 803 583 l 621 583 z "},"A":{"ha":936,"x_min":21,"x_max":915,"o":"m 568 972 l 915 0 l 724 0 l 650 210 l 286 210 l 213 0 l 21 0 l 368 972 l 568 972 m 467 728 l 344 376 l 590 376 l 469 728 l 467 728 z "},"B":{"ha":924,"x_min":118,"x_max":806,"o":"m 806 574 l 685 504 l 685 501 l 806 432 l 806 93 l 644 0 l 118 0 l 118 972 l 644 972 l 806 879 l 806 574 m 313 419 l 313 167 l 611 167 l 611 419 l 313 419 m 313 806 l 313 586 l 611 586 l 611 806 l 313 806 z "},"C":{"ha":938,"x_min":118,"x_max":833,"o":"m 639 285 l 833 285 l 833 86 l 672 -7 l 279 -7 l 118 86 l 118 886 l 279 979 l 672 979 l 833 886 l 833 688 l 639 688 l 639 813 l 313 813 l 313 160 l 639 160 l 639 285 z "},"D":{"ha":993,"x_min":118,"x_max":875,"o":"m 875 93 l 714 0 l 118 0 l 118 972 l 714 972 l 875 879 l 875 93 m 313 806 l 313 167 l 681 167 l 681 806 l 313 806 z "},"E":{"ha":763,"x_min":118,"x_max":700,"o":"m 313 417 l 313 167 l 700 167 l 700 0 l 118 0 l 118 972 l 700 972 l 700 806 l 313 806 l 313 583 l 617 583 l 617 417 l 313 417 z "},"F":{"ha":749,"x_min":118,"x_max":714,"o":"m 313 417 l 313 0 l 118 0 l 118 972 l 714 972 l 714 806 l 313 806 l 313 583 l 631 583 l 631 417 l 313 417 z "},"G":{"ha":924,"x_min":104,"x_max":819,"o":"m 465 340 l 465 507 l 819 507 l 819 86 l 658 -7 l 265 -7 l 104 86 l 104 886 l 265 979 l 658 979 l 819 886 l 819 688 l 625 688 l 625 813 l 299 813 l 299 160 l 625 160 l 625 340 l 465 340 z "},"H":{"ha":1007,"x_min":118,"x_max":889,"o":"m 313 417 l 313 0 l 118 0 l 118 972 l 313 972 l 313 583 l 694 583 l 694 972 l 889 972 l 889 0 l 694 0 l 694 417 l 313 417 z "},"I":{"ha":431,"x_min":118,"x_max":313,"o":"m 118 0 l 118 972 l 313 972 l 313 0 l 118 0 z "},"J":{"ha":757,"x_min":21,"x_max":639,"o":"m 444 160 l 444 972 l 639 972 l 639 86 l 478 -7 l 182 -7 l 21 86 l 21 354 l 215 354 l 215 160 l 444 160 z "},"K":{"ha":958,"x_min":118,"x_max":951,"o":"m 118 0 l 118 972 l 313 972 l 313 535 l 315 535 l 678 972 l 908 972 l 525 517 l 951 0 l 718 0 l 408 378 l 313 265 l 313 0 l 118 0 z "},"L":{"ha":679,"x_min":118,"x_max":644,"o":"m 118 0 l 118 972 l 313 972 l 313 167 l 644 167 l 644 0 l 118 0 z "},"M":{"ha":1242,"x_min":118,"x_max":1124,"o":"m 936 0 l 936 642 l 933 642 l 714 0 l 529 0 l 308 650 l 306 650 l 306 0 l 118 0 l 118 972 l 376 972 l 621 257 l 624 257 l 867 972 l 1124 972 l 1124 0 l 936 0 z "},"N":{"ha":1035,"x_min":118,"x_max":917,"o":"m 313 629 l 313 0 l 118 0 l 118 972 l 300 972 l 719 343 l 722 343 l 722 972 l 917 972 l 917 0 l 735 0 l 315 629 l 313 629 z "},"O":{"ha":993,"x_min":118,"x_max":875,"o":"m 875 86 l 714 -7 l 279 -7 l 118 86 l 118 886 l 279 979 l 714 979 l 875 886 l 875 86 m 313 813 l 313 160 l 681 160 l 681 813 l 313 813 z "},"P":{"ha":868,"x_min":118,"x_max":792,"o":"m 118 0 l 118 972 l 631 972 l 792 879 l 792 446 l 631 353 l 313 353 l 313 0 l 118 0 m 313 806 l 313 519 l 597 519 l 597 806 l 313 806 z "},"Q":{"ha":993,"x_min":118,"x_max":875,"o":"m 313 813 l 313 160 l 681 160 l 681 813 l 313 813 m 506 -7 l 279 -7 l 118 86 l 118 886 l 279 979 l 714 979 l 875 886 l 875 86 l 714 -7 l 871 -278 l 658 -278 l 506 -7 z "},"R":{"ha":924,"x_min":118,"x_max":856,"o":"m 856 0 l 642 0 l 433 367 l 313 367 l 313 0 l 118 0 l 118 972 l 644 972 l 806 879 l 806 460 l 644 367 l 856 0 m 313 806 l 313 533 l 611 533 l 611 806 l 313 806 z "},"S":{"ha":910,"x_min":104,"x_max":792,"o":"m 118 493 l 118 886 l 279 979 l 631 979 l 792 886 l 792 701 l 597 701 l 597 813 l 313 813 l 313 581 l 631 581 l 792 488 l 792 86 l 631 -7 l 265 -7 l 104 86 l 104 271 l 299 271 l 299 160 l 597 160 l 597 400 l 279 400 l 118 493 z "},"T":{"ha":789,"x_min":35,"x_max":754,"o":"m 492 806 l 492 0 l 297 0 l 297 806 l 35 806 l 35 972 l 754 972 l 754 806 l 492 806 z "},"U":{"ha":993,"x_min":118,"x_max":875,"o":"m 681 972 l 875 972 l 875 86 l 714 -7 l 279 -7 l 118 86 l 118 972 l 313 972 l 313 174 l 681 174 l 681 972 z "},"V":{"ha":950,"x_min":21,"x_max":929,"o":"m 929 972 l 582 0 l 368 0 l 21 972 l 218 972 l 475 238 l 478 238 l 732 972 l 929 972 z "},"W":{"ha":1333,"x_min":35,"x_max":1299,"o":"m 1299 972 l 1051 0 l 843 0 l 668 657 l 665 657 l 490 0 l 282 0 l 35 972 l 224 972 l 388 306 l 390 306 l 568 972 l 765 972 l 943 308 l 946 308 l 1110 972 l 1299 972 z "},"X":{"ha":918,"x_min":35,"x_max":883,"o":"m 35 0 l 349 497 l 49 972 l 268 972 l 458 671 l 650 972 l 869 972 l 568 497 l 883 0 l 664 0 l 458 324 l 254 0 l 35 0 z "},"Y":{"ha":863,"x_min":21,"x_max":842,"o":"m 333 0 l 333 415 l 21 972 l 232 972 l 429 608 l 432 608 l 631 972 l 842 972 l 528 414 l 528 0 l 333 0 z "},"Z":{"ha":826,"x_min":63,"x_max":750,"o":"m 90 806 l 90 972 l 750 972 l 750 847 l 313 169 l 313 167 l 750 167 l 750 0 l 63 0 l 63 125 l 500 803 l 500 806 l 90 806 z "},"[":{"ha":518,"x_min":118,"x_max":442,"o":"m 299 875 l 299 -139 l 442 -139 l 442 -278 l 118 -278 l 118 1014 l 442 1014 l 442 875 l 299 875 z "},"\\":{"ha":578,"x_min":35,"x_max":543,"o":"m 215 1000 l 543 -28 l 363 -28 l 35 1000 l 215 1000 z "},"]":{"ha":518,"x_min":76,"x_max":400,"o":"m 219 -139 l 219 875 l 76 875 l 76 1014 l 400 1014 l 400 -278 l 76 -278 l 76 -139 l 219 -139 z "},"^":{"ha":850,"x_min":63,"x_max":788,"o":"m 267 528 l 63 528 l 340 972 l 510 972 l 788 528 l 583 528 l 426 796 l 425 796 l 267 528 z "},"_":{"ha":836,"x_min":-35,"x_max":871,"o":"m 871 -119 l 871 -278 l -35 -278 l -35 -119 l 871 -119 z "},"`":{"ha":694,"x_min":229,"x_max":596,"o":"m 465 997 l 596 819 l 429 819 l 229 997 l 465 997 z "},"a":{"ha":757,"x_min":76,"x_max":653,"o":"m 267 274 l 267 153 l 463 153 l 463 274 l 267 274 m 238 -7 l 76 86 l 76 326 l 238 419 l 463 419 l 463 532 l 146 532 l 146 694 l 492 694 l 653 601 l 653 -7 l 561 -7 l 463 50 l 364 -7 l 238 -7 z "},"b":{"ha":840,"x_min":104,"x_max":736,"o":"m 393 701 l 575 701 l 736 608 l 736 86 l 575 -7 l 393 -7 l 294 50 l 196 -7 l 104 -7 l 104 1014 l 294 1014 l 294 644 l 393 701 m 294 539 l 294 156 l 546 156 l 546 539 l 294 539 z "},"c":{"ha":715,"x_min":104,"x_max":639,"o":"m 294 532 l 294 163 l 639 163 l 639 0 l 265 0 l 104 93 l 104 601 l 265 694 l 639 694 l 639 532 l 294 532 z "},"d":{"ha":840,"x_min":104,"x_max":736,"o":"m 265 701 l 447 701 l 546 644 l 546 1014 l 736 1014 l 736 -7 l 579 -7 l 546 50 l 447 -7 l 265 -7 l 104 86 l 104 608 l 265 701 m 546 156 l 546 539 l 294 539 l 294 156 l 546 156 z "},"e":{"ha":785,"x_min":104,"x_max":681,"o":"m 681 163 l 681 0 l 265 0 l 104 93 l 104 608 l 265 701 l 519 701 l 681 608 l 681 276 l 294 276 l 294 163 l 681 163 m 294 539 l 294 419 l 490 419 l 490 539 l 294 539 z "},"f":{"ha":568,"x_min":49,"x_max":519,"o":"m 49 532 l 49 694 l 176 694 l 176 921 l 338 1014 l 519 1014 l 519 851 l 367 851 l 367 694 l 519 694 l 519 532 l 367 532 l 367 0 l 176 0 l 176 532 l 49 532 z "},"g":{"ha":813,"x_min":76,"x_max":736,"o":"m 76 -192 l 76 -94 l 238 0 l 104 78 l 104 203 l 203 260 l 104 317 l 104 601 l 265 694 l 736 694 l 736 606 l 610 532 l 694 482 l 694 332 l 533 239 l 294 239 l 294 149 l 575 149 l 736 56 l 736 -192 l 575 -285 l 238 -285 l 76 -192 m 546 0 l 267 0 l 267 -125 l 546 -125 l 546 0 m 294 539 l 294 394 l 504 394 l 504 539 l 294 539 z "},"h":{"ha":840,"x_min":104,"x_max":736,"o":"m 294 0 l 104 0 l 104 1014 l 294 1014 l 294 644 l 393 701 l 575 701 l 736 608 l 736 0 l 546 0 l 546 539 l 294 539 l 294 0 z "},"i":{"ha":399,"x_min":97,"x_max":301,"o":"m 294 694 l 294 0 l 104 0 l 104 694 l 294 694 m 97 824 l 97 1014 l 301 1014 l 301 824 l 97 824 z "},"j":{"ha":399,"x_min":-35,"x_max":301,"o":"m 97 824 l 97 1014 l 301 1014 l 301 824 l 97 824 m 294 694 l 294 -185 l 133 -278 l -35 -278 l -35 -115 l 104 -115 l 104 694 l 294 694 z "},"k":{"ha":765,"x_min":104,"x_max":772,"o":"m 294 1014 l 294 415 l 297 415 l 513 694 l 731 694 l 482 385 l 772 0 l 551 0 l 371 246 l 294 150 l 294 0 l 104 0 l 104 1014 l 294 1014 z "},"l":{"ha":454,"x_min":104,"x_max":433,"o":"m 265 0 l 104 93 l 104 1014 l 294 1014 l 294 163 l 433 163 l 433 0 l 265 0 z "},"m":{"ha":1185,"x_min":104,"x_max":1081,"o":"m 1081 608 l 1081 0 l 890 0 l 890 539 l 688 539 l 688 0 l 497 0 l 497 539 l 294 539 l 294 0 l 104 0 l 104 701 l 261 701 l 294 644 l 393 701 l 526 701 l 656 626 l 786 701 l 919 701 l 1081 608 z "},"n":{"ha":826,"x_min":104,"x_max":722,"o":"m 722 608 l 722 0 l 532 0 l 532 539 l 294 539 l 294 0 l 104 0 l 104 701 l 261 701 l 294 644 l 393 701 l 561 701 l 722 608 z "},"o":{"ha":826,"x_min":104,"x_max":722,"o":"m 722 86 l 561 -7 l 265 -7 l 104 86 l 104 608 l 265 701 l 561 701 l 722 608 l 722 86 m 294 539 l 294 156 l 532 156 l 532 539 l 294 539 z "},"p":{"ha":840,"x_min":104,"x_max":736,"o":"m 575 -7 l 393 -7 l 294 50 l 294 -278 l 104 -278 l 104 701 l 261 701 l 294 644 l 393 701 l 575 701 l 736 608 l 736 86 l 575 -7 m 294 539 l 294 156 l 546 156 l 546 539 l 294 539 z "},"q":{"ha":840,"x_min":104,"x_max":736,"o":"m 447 -7 l 265 -7 l 104 86 l 104 608 l 265 701 l 447 701 l 546 644 l 644 701 l 736 701 l 736 -278 l 546 -278 l 546 50 l 447 -7 m 546 156 l 546 539 l 294 539 l 294 156 l 546 156 z "},"r":{"ha":568,"x_min":104,"x_max":533,"o":"m 533 532 l 294 532 l 294 0 l 104 0 l 104 694 l 261 694 l 294 638 l 393 694 l 533 694 l 533 532 z "},"s":{"ha":758,"x_min":104,"x_max":654,"o":"m 654 342 l 654 93 l 493 0 l 104 0 l 104 163 l 464 163 l 464 269 l 265 269 l 104 363 l 104 601 l 265 694 l 640 694 l 640 532 l 294 532 l 294 435 l 493 435 l 654 342 z "},"t":{"ha":596,"x_min":49,"x_max":519,"o":"m 49 532 l 49 694 l 176 694 l 176 811 l 367 921 l 367 694 l 519 694 l 519 532 l 367 532 l 367 163 l 519 163 l 519 0 l 338 0 l 176 93 l 176 532 l 49 532 z "},"u":{"ha":826,"x_min":104,"x_max":722,"o":"m 104 86 l 104 694 l 294 694 l 294 156 l 532 156 l 532 694 l 722 694 l 722 -7 l 565 -7 l 532 50 l 433 -7 l 265 -7 l 104 86 z "},"v":{"ha":746,"x_min":21,"x_max":725,"o":"m 211 694 l 371 239 l 374 239 l 535 694 l 725 694 l 468 0 l 278 0 l 21 694 l 211 694 z "},"w":{"ha":1067,"x_min":35,"x_max":1032,"o":"m 535 439 l 532 439 l 410 0 l 213 0 l 35 694 l 211 694 l 319 251 l 322 251 l 446 694 l 621 694 l 744 251 l 747 251 l 856 694 l 1032 694 l 854 0 l 657 0 l 535 439 z "},"x":{"ha":744,"x_min":21,"x_max":724,"o":"m 21 0 l 274 354 l 29 694 l 236 694 l 372 499 l 508 694 l 715 694 l 469 354 l 724 0 l 519 0 l 372 208 l 225 0 l 21 0 z "},"y":{"ha":757,"x_min":21,"x_max":736,"o":"m 158 -278 l 286 49 l 21 694 l 211 694 l 382 286 l 385 286 l 546 694 l 736 694 l 346 -278 l 158 -278 z "},"z":{"ha":661,"x_min":49,"x_max":599,"o":"m 49 133 l 349 529 l 349 532 l 63 532 l 63 694 l 599 694 l 599 561 l 299 165 l 299 163 l 599 163 l 599 0 l 49 0 l 49 133 z "},"{":{"ha":567,"x_min":49,"x_max":490,"o":"m 347 313 l 347 -139 l 490 -139 l 490 -278 l 328 -278 l 167 -185 l 167 299 l 49 299 l 49 438 l 167 438 l 167 921 l 328 1014 l 490 1014 l 490 875 l 347 875 l 347 424 l 254 369 l 254 367 l 347 313 z "},"|":{"ha":500,"x_min":160,"x_max":340,"o":"m 160 -278 l 160 1014 l 340 1014 l 340 -278 l 160 -278 z "},"}":{"ha":567,"x_min":76,"x_max":518,"o":"m 219 -139 l 219 313 l 313 367 l 313 369 l 219 424 l 219 875 l 76 875 l 76 1014 l 239 1014 l 400 921 l 400 438 l 518 438 l 518 299 l 400 299 l 400 -185 l 239 -278 l 76 -278 l 76 -139 l 219 -139 z "},"~":{"ha":933,"x_min":76,"x_max":857,"o":"m 343 354 l 239 354 l 239 240 l 76 240 l 76 424 l 238 517 l 394 517 l 590 403 l 694 403 l 694 517 l 857 517 l 857 333 l 696 240 l 539 240 l 343 354 z "}," ":{"ha":361,"x_min":0,"x_max":0,"o":""},"¡":{"ha":528,"x_min":132,"x_max":396,"o":"m 132 431 l 132 694 l 396 694 l 396 431 l 132 431 m 144 -319 l 181 294 l 347 294 l 383 -319 l 144 -319 z "},"¢":{"ha":729,"x_min":104,"x_max":653,"o":"m 525 694 l 653 694 l 653 532 l 294 532 l 294 163 l 653 163 l 653 0 l 525 0 l 525 -164 l 364 -164 l 364 0 l 265 0 l 104 93 l 104 601 l 265 694 l 364 694 l 364 858 l 525 858 l 525 694 z "},"£":{"ha":906,"x_min":49,"x_max":843,"o":"m 515 528 l 515 383 l 350 383 l 350 167 l 649 167 l 649 292 l 843 292 l 843 93 l 682 0 l 156 0 l 156 383 l 49 383 l 49 528 l 156 528 l 156 886 l 317 979 l 613 979 l 774 886 l 774 688 l 579 688 l 579 813 l 350 813 l 350 528 l 515 528 z "},"¥":{"ha":918,"x_min":49,"x_max":869,"o":"m 361 0 l 361 178 l 86 178 l 86 322 l 361 322 l 361 407 l 86 407 l 86 551 l 285 551 l 49 972 l 260 972 l 457 608 l 460 608 l 658 972 l 869 972 l 632 551 l 831 551 l 831 407 l 556 407 l 556 322 l 831 322 l 831 178 l 556 178 l 556 0 l 361 0 z "},"¦":{"ha":500,"x_min":160,"x_max":340,"o":"m 160 -278 l 160 281 l 340 281 l 340 -278 l 160 -278 m 160 456 l 160 1014 l 340 1014 l 340 456 l 160 456 z "},"§":{"ha":921,"x_min":118,"x_max":803,"o":"m 583 247 l 583 454 l 351 454 l 351 247 l 583 247 m 157 467 l 278 536 l 278 539 l 157 608 l 157 886 l 318 979 l 642 979 l 803 886 l 803 701 l 608 701 l 608 813 l 351 813 l 351 621 l 617 621 l 778 528 l 778 235 l 657 165 l 657 163 l 778 93 l 778 -185 l 617 -278 l 279 -278 l 118 -185 l 118 0 l 313 0 l 313 -111 l 583 -111 l 583 81 l 318 81 l 157 174 l 157 467 z "},"¨":{"ha":756,"x_min":111,"x_max":631,"o":"m 111 826 l 111 1014 l 299 1014 l 299 826 l 111 826 m 443 826 l 443 1014 l 631 1014 l 631 826 l 443 826 z "},"©":{"ha":1181,"x_min":118,"x_max":1063,"o":"m 1063 86 l 901 -7 l 279 -7 l 118 86 l 118 886 l 279 979 l 901 979 l 1063 886 l 1063 86 m 285 840 l 285 132 l 896 132 l 896 840 l 285 840 m 669 390 l 821 390 l 821 246 l 719 188 l 461 188 l 358 246 l 358 726 l 461 785 l 719 785 l 821 726 l 821 582 l 669 582 l 669 656 l 510 656 l 510 317 l 669 317 l 669 390 z "},"ª":{"ha":785,"x_min":104,"x_max":681,"o":"m 294 551 l 294 431 l 490 431 l 490 551 l 294 551 m 265 271 l 104 364 l 104 604 l 265 697 l 490 697 l 490 810 l 174 810 l 174 972 l 519 972 l 681 879 l 681 271 l 589 271 l 490 328 l 392 271 l 265 271 m 104 0 l 104 163 l 681 163 l 681 0 l 104 0 z "},"«":{"ha":958,"x_min":118,"x_max":840,"o":"m 479 190 l 479 0 l 118 264 l 118 433 l 479 697 l 479 507 l 253 350 l 253 349 l 479 190 m 840 190 l 840 0 l 479 264 l 479 433 l 840 697 l 840 507 l 614 350 l 614 349 l 840 190 z "},"®":{"ha":1181,"x_min":118,"x_max":1063,"o":"m 835 192 l 669 192 l 554 393 l 522 393 l 522 192 l 371 192 l 371 781 l 706 781 l 808 722 l 808 453 l 714 397 l 835 192 m 522 651 l 522 522 l 657 522 l 657 651 l 522 651 m 1063 86 l 901 -7 l 279 -7 l 118 86 l 118 886 l 279 979 l 901 979 l 1063 886 l 1063 86 m 285 840 l 285 132 l 896 132 l 896 840 l 285 840 z "},"¯":{"ha":832,"x_min":200,"x_max":632,"o":"m 200 833 l 200 968 l 632 968 l 632 833 l 200 833 z "},"°":{"ha":688,"x_min":90,"x_max":597,"o":"m 597 589 l 436 496 l 251 496 l 90 589 l 90 893 l 251 986 l 436 986 l 597 893 l 597 589 m 258 832 l 258 650 l 429 650 l 429 832 l 258 832 z "},"±":{"ha":958,"x_min":118,"x_max":840,"o":"m 118 621 l 386 621 l 386 806 l 572 806 l 572 621 l 840 621 l 840 435 l 572 435 l 572 250 l 386 250 l 386 435 l 118 435 l 118 621 m 840 186 l 840 0 l 118 0 l 118 186 l 840 186 z "},"´":{"ha":694,"x_min":229,"x_max":596,"o":"m 229 819 l 360 997 l 596 997 l 396 819 l 229 819 z "},"µ":{"ha":858,"x_min":104,"x_max":838,"o":"m 294 -261 l 104 -261 l 104 694 l 294 694 l 294 163 l 532 163 l 532 694 l 722 694 l 722 163 l 838 163 l 838 0 l 565 0 l 532 57 l 433 0 l 294 0 l 294 -261 z "},"¶":{"ha":1021,"x_min":76,"x_max":903,"o":"m 713 -278 l 713 810 l 592 810 l 592 -278 l 401 -278 l 401 304 l 238 304 l 76 397 l 76 879 l 238 972 l 903 972 l 903 -278 l 713 -278 z "},"·":{"ha":528,"x_min":132,"x_max":396,"o":"m 132 367 l 132 631 l 396 631 l 396 367 l 132 367 z "},"¸":{"ha":803,"x_min":265,"x_max":538,"o":"m 354 0 l 483 0 l 446 -65 l 538 -118 l 538 -249 l 418 -318 l 265 -318 l 265 -207 l 403 -207 l 403 -144 l 271 -144 l 354 0 z "},"º":{"ha":826,"x_min":104,"x_max":722,"o":"m 722 364 l 561 271 l 265 271 l 104 364 l 104 886 l 265 979 l 561 979 l 722 886 l 722 364 m 294 817 l 294 433 l 532 433 l 532 817 l 294 817 m 104 0 l 104 163 l 722 163 l 722 0 l 104 0 z "},"»":{"ha":958,"x_min":118,"x_max":840,"o":"m 479 0 l 479 190 l 706 349 l 706 350 l 479 507 l 479 697 l 840 433 l 840 264 l 479 0 m 118 0 l 118 190 l 344 349 l 344 350 l 118 507 l 118 697 l 479 433 l 479 264 l 118 0 z "},"¿":{"ha":819,"x_min":118,"x_max":701,"o":"m 379 172 l 392 294 l 544 294 l 558 99 l 397 6 l 313 6 l 313 -153 l 507 -153 l 507 -28 l 701 -28 l 701 -226 l 540 -319 l 279 -319 l 118 -226 l 118 79 l 279 172 l 379 172 m 600 694 l 600 431 l 336 431 l 336 694 l 600 694 z "},"À":{"ha":936,"x_min":21,"x_max":915,"o":"m 568 972 l 915 0 l 724 0 l 650 210 l 286 210 l 213 0 l 21 0 l 368 972 l 568 972 m 467 728 l 344 376 l 590 376 l 469 728 l 467 728 m 465 1268 l 596 1090 l 429 1090 l 229 1268 l 465 1268 z "},"Á":{"ha":936,"x_min":21,"x_max":915,"o":"m 568 972 l 915 0 l 724 0 l 650 210 l 286 210 l 213 0 l 21 0 l 368 972 l 568 972 m 467 728 l 344 376 l 590 376 l 469 728 l 467 728 m 368 1090 l 499 1268 l 735 1268 l 535 1090 l 368 1090 z "},"Â":{"ha":936,"x_min":21,"x_max":915,"o":"m 568 972 l 915 0 l 724 0 l 650 210 l 286 210 l 213 0 l 21 0 l 368 972 l 568 972 m 467 728 l 344 376 l 590 376 l 469 728 l 467 728 m 343 1296 l 607 1296 l 747 1090 l 588 1090 l 475 1201 l 364 1090 l 204 1090 l 343 1296 z "},"Ã":{"ha":936,"x_min":21,"x_max":915,"o":"m 568 972 l 915 0 l 724 0 l 650 210 l 286 210 l 213 0 l 21 0 l 368 972 l 568 972 m 467 728 l 344 376 l 590 376 l 469 728 l 467 728 m 363 1204 l 357 1204 l 357 1090 l 221 1090 l 221 1263 l 351 1339 l 390 1339 l 588 1225 l 593 1225 l 593 1339 l 729 1339 l 729 1167 l 599 1090 l 560 1090 l 363 1204 z "},"Ä":{"ha":936,"x_min":21,"x_max":915,"o":"m 568 972 l 915 0 l 724 0 l 650 210 l 286 210 l 213 0 l 21 0 l 368 972 l 568 972 m 467 728 l 344 376 l 590 376 l 469 728 l 467 728 m 215 1090 l 215 1278 l 403 1278 l 403 1090 l 215 1090 m 547 1090 l 547 1278 l 735 1278 l 735 1090 l 547 1090 z "},"Å":{"ha":936,"x_min":21,"x_max":915,"o":"m 692 913 l 607 864 l 915 0 l 724 0 l 650 210 l 286 210 l 213 0 l 21 0 l 328 861 l 240 913 l 240 1203 l 354 1268 l 578 1268 l 692 1203 l 692 913 m 467 728 l 344 376 l 590 376 l 469 728 l 467 728 m 386 1136 l 386 979 l 546 979 l 546 1136 l 386 1136 z "},"Æ":{"ha":1322,"x_min":-35,"x_max":1260,"o":"m 872 417 l 872 167 l 1260 167 l 1260 0 l 678 0 l 678 210 l 317 210 l 171 0 l -35 0 l 647 972 l 1260 972 l 1260 806 l 872 806 l 872 583 l 1176 583 l 1176 417 l 872 417 m 675 728 l 432 376 l 678 376 l 678 728 l 675 728 z "},"Ç":{"ha":938,"x_min":118,"x_max":833,"o":"m 639 285 l 833 285 l 833 86 l 672 -7 l 538 -7 l 504 -65 l 596 -118 l 596 -249 l 476 -318 l 324 -318 l 324 -207 l 461 -207 l 461 -144 l 329 -144 l 408 -7 l 279 -7 l 118 86 l 118 886 l 279 979 l 672 979 l 833 886 l 833 688 l 639 688 l 639 813 l 313 813 l 313 160 l 639 160 l 639 285 z "},"È":{"ha":763,"x_min":118,"x_max":700,"o":"m 313 417 l 313 167 l 700 167 l 700 0 l 118 0 l 118 972 l 700 972 l 700 806 l 313 806 l 313 583 l 617 583 l 617 417 l 313 417 m 424 1268 l 554 1090 l 388 1090 l 188 1268 l 424 1268 z "},"É":{"ha":763,"x_min":118,"x_max":700,"o":"m 313 417 l 313 167 l 700 167 l 700 0 l 118 0 l 118 972 l 700 972 l 700 806 l 313 806 l 313 583 l 617 583 l 617 417 l 313 417 m 285 1090 l 415 1268 l 651 1268 l 451 1090 l 285 1090 z "},"Ê":{"ha":763,"x_min":118,"x_max":700,"o":"m 313 417 l 313 167 l 700 167 l 700 0 l 118 0 l 118 972 l 700 972 l 700 806 l 313 806 l 313 583 l 617 583 l 617 417 l 313 417 m 283 1296 l 547 1296 l 688 1090 l 528 1090 l 415 1201 l 304 1090 l 144 1090 l 283 1296 z "},"Ë":{"ha":763,"x_min":118,"x_max":700,"o":"m 313 417 l 313 167 l 700 167 l 700 0 l 118 0 l 118 972 l 700 972 l 700 806 l 313 806 l 313 583 l 617 583 l 617 417 l 313 417 m 153 1090 l 153 1278 l 340 1278 l 340 1090 l 153 1090 m 485 1090 l 485 1278 l 672 1278 l 672 1090 l 485 1090 z "},"Ì":{"ha":431,"x_min":-28,"x_max":339,"o":"m 118 0 l 118 972 l 313 972 l 313 0 l 118 0 m 208 1268 l 339 1090 l 172 1090 l -28 1268 l 208 1268 z "},"Í":{"ha":431,"x_min":90,"x_max":457,"o":"m 118 0 l 118 972 l 313 972 l 313 0 l 118 0 m 90 1090 l 221 1268 l 457 1268 l 257 1090 l 90 1090 z "},"Î":{"ha":431,"x_min":-56,"x_max":488,"o":"m 118 0 l 118 972 l 313 972 l 313 0 l 118 0 m 83 1296 l 347 1296 l 488 1090 l 328 1090 l 215 1201 l 104 1090 l -56 1090 l 83 1296 z "},"Ï":{"ha":431,"x_min":-44,"x_max":475,"o":"m 118 0 l 118 972 l 313 972 l 313 0 l 118 0 m -44 1090 l -44 1278 l 143 1278 l 143 1090 l -44 1090 m 288 1090 l 288 1278 l 475 1278 l 475 1090 l 288 1090 z "},"Ð":{"ha":993,"x_min":21,"x_max":875,"o":"m 21 521 l 118 521 l 118 972 l 714 972 l 875 879 l 875 93 l 714 0 l 118 0 l 118 390 l 21 390 l 21 521 m 313 806 l 313 521 l 446 521 l 446 390 l 313 390 l 313 167 l 681 167 l 681 806 l 313 806 z "},"Ñ":{"ha":1035,"x_min":118,"x_max":917,"o":"m 313 629 l 313 0 l 118 0 l 118 972 l 300 972 l 719 343 l 722 343 l 722 972 l 917 972 l 917 0 l 735 0 l 315 629 l 313 629 m 406 1204 l 400 1204 l 400 1090 l 264 1090 l 264 1263 l 394 1339 l 433 1339 l 631 1225 l 636 1225 l 636 1339 l 772 1339 l 772 1167 l 642 1090 l 603 1090 l 406 1204 z "},"Ò":{"ha":993,"x_min":118,"x_max":875,"o":"m 875 86 l 714 -7 l 279 -7 l 118 86 l 118 886 l 279 979 l 714 979 l 875 886 l 875 86 m 313 813 l 313 160 l 681 160 l 681 813 l 313 813 m 493 1268 l 624 1090 l 457 1090 l 257 1268 l 493 1268 z "},"Ó":{"ha":993,"x_min":118,"x_max":875,"o":"m 875 86 l 714 -7 l 279 -7 l 118 86 l 118 886 l 279 979 l 714 979 l 875 886 l 875 86 m 313 813 l 313 160 l 681 160 l 681 813 l 313 813 m 368 1090 l 499 1268 l 735 1268 l 535 1090 l 368 1090 z "},"Ô":{"ha":993,"x_min":118,"x_max":875,"o":"m 875 86 l 714 -7 l 279 -7 l 118 86 l 118 886 l 279 979 l 714 979 l 875 886 l 875 86 m 313 813 l 313 160 l 681 160 l 681 813 l 313 813 m 378 1296 l 642 1296 l 782 1090 l 622 1090 l 510 1201 l 399 1090 l 239 1090 l 378 1296 z "},"Õ":{"ha":993,"x_min":118,"x_max":875,"o":"m 875 86 l 714 -7 l 279 -7 l 118 86 l 118 886 l 279 979 l 714 979 l 875 886 l 875 86 m 313 813 l 313 160 l 681 160 l 681 813 l 313 813 m 390 1204 l 385 1204 l 385 1090 l 249 1090 l 249 1263 l 379 1339 l 418 1339 l 615 1225 l 621 1225 l 621 1339 l 757 1339 l 757 1167 l 626 1090 l 588 1090 l 390 1204 z "},"Ö":{"ha":993,"x_min":118,"x_max":875,"o":"m 875 86 l 714 -7 l 279 -7 l 118 86 l 118 886 l 279 979 l 714 979 l 875 886 l 875 86 m 313 813 l 313 160 l 681 160 l 681 813 l 313 813 m 243 1090 l 243 1278 l 431 1278 l 431 1090 l 243 1090 m 575 1090 l 575 1278 l 763 1278 l 763 1090 l 575 1090 z "},"×":{"ha":875,"x_min":76,"x_max":799,"o":"m 208 722 l 438 493 l 667 722 l 799 590 l 569 361 l 799 132 l 667 0 l 438 229 l 208 0 l 76 132 l 306 361 l 76 590 l 208 722 z "},"Ø":{"ha":993,"x_min":118,"x_max":875,"o":"m 875 86 l 714 -7 l 279 -7 l 118 86 l 118 886 l 279 979 l 714 979 l 875 886 l 875 86 m 381 160 l 681 160 l 681 660 l 381 160 m 313 813 l 313 313 l 611 813 l 313 813 z "},"Ù":{"ha":993,"x_min":118,"x_max":875,"o":"m 681 972 l 875 972 l 875 86 l 714 -7 l 279 -7 l 118 86 l 118 972 l 313 972 l 313 174 l 681 174 l 681 972 m 479 1268 l 610 1090 l 443 1090 l 243 1268 l 479 1268 z "},"Ú":{"ha":993,"x_min":118,"x_max":875,"o":"m 681 972 l 875 972 l 875 86 l 714 -7 l 279 -7 l 118 86 l 118 972 l 313 972 l 313 174 l 681 174 l 681 972 m 389 1090 l 519 1268 l 756 1268 l 556 1090 l 389 1090 z "},"Û":{"ha":993,"x_min":118,"x_max":875,"o":"m 681 972 l 875 972 l 875 86 l 714 -7 l 279 -7 l 118 86 l 118 972 l 313 972 l 313 174 l 681 174 l 681 972 m 375 1296 l 639 1296 l 779 1090 l 619 1090 l 507 1201 l 396 1090 l 236 1090 l 375 1296 z "},"Ü":{"ha":993,"x_min":118,"x_max":875,"o":"m 681 972 l 875 972 l 875 86 l 714 -7 l 279 -7 l 118 86 l 118 972 l 313 972 l 313 174 l 681 174 l 681 972 m 243 1090 l 243 1278 l 431 1278 l 431 1090 l 243 1090 m 575 1090 l 575 1278 l 763 1278 l 763 1090 l 575 1090 z "},"Ý":{"ha":863,"x_min":21,"x_max":842,"o":"m 333 0 l 333 415 l 21 972 l 232 972 l 429 608 l 432 608 l 631 972 l 842 972 l 528 414 l 528 0 l 333 0 m 313 1090 l 443 1268 l 679 1268 l 479 1090 l 313 1090 z "},"Þ":{"ha":896,"x_min":118,"x_max":792,"o":"m 118 0 l 118 1014 l 313 1014 l 313 836 l 631 836 l 792 743 l 792 289 l 631 196 l 313 196 l 313 0 l 118 0 m 313 669 l 313 363 l 597 363 l 597 669 l 313 669 z "},"ß":{"ha":938,"x_min":35,"x_max":833,"o":"m 35 419 l 35 586 l 160 586 l 160 879 l 321 972 l 631 972 l 792 879 l 792 574 l 689 514 l 833 432 l 833 93 l 672 0 l 442 0 l 442 167 l 639 167 l 639 419 l 442 419 l 442 586 l 597 586 l 597 806 l 354 806 l 354 -278 l 160 -278 l 160 419 l 35 419 z "},"à":{"ha":757,"x_min":76,"x_max":653,"o":"m 267 274 l 267 153 l 463 153 l 463 274 l 267 274 m 238 -7 l 76 86 l 76 326 l 238 419 l 463 419 l 463 532 l 146 532 l 146 694 l 492 694 l 653 601 l 653 -7 l 561 -7 l 463 50 l 364 -7 l 238 -7 m 408 997 l 539 819 l 372 819 l 172 997 l 408 997 z "},"á":{"ha":757,"x_min":76,"x_max":653,"o":"m 267 274 l 267 153 l 463 153 l 463 274 l 267 274 m 238 -7 l 76 86 l 76 326 l 238 419 l 463 419 l 463 532 l 146 532 l 146 694 l 492 694 l 653 601 l 653 -7 l 561 -7 l 463 50 l 364 -7 l 238 -7 m 229 819 l 360 997 l 596 997 l 396 819 l 229 819 z "},"â":{"ha":757,"x_min":76,"x_max":668,"o":"m 267 274 l 267 153 l 463 153 l 463 274 l 267 274 m 238 -7 l 76 86 l 76 326 l 238 419 l 463 419 l 463 532 l 146 532 l 146 694 l 492 694 l 653 601 l 653 -7 l 561 -7 l 463 50 l 364 -7 l 238 -7 m 264 1025 l 528 1025 l 668 819 l 508 819 l 396 931 l 285 819 l 125 819 l 264 1025 z "},"ã":{"ha":757,"x_min":76,"x_max":653,"o":"m 267 274 l 267 153 l 463 153 l 463 274 l 267 274 m 238 -7 l 76 86 l 76 326 l 238 419 l 463 419 l 463 532 l 146 532 l 146 694 l 492 694 l 653 601 l 653 -7 l 561 -7 l 463 50 l 364 -7 l 238 -7 m 267 926 l 261 926 l 261 813 l 125 813 l 125 985 l 256 1061 l 294 1061 l 492 947 l 497 947 l 497 1061 l 633 1061 l 633 889 l 503 813 l 464 813 l 267 926 z "},"ä":{"ha":758,"x_min":76,"x_max":654,"o":"m 267 274 l 267 153 l 463 153 l 463 274 l 267 274 m 238 -7 l 76 86 l 76 326 l 238 419 l 463 419 l 463 532 l 146 532 l 146 694 l 492 694 l 653 601 l 653 -7 l 561 -7 l 463 50 l 364 -7 l 238 -7 m 135 826 l 135 1014 l 322 1014 l 322 826 l 135 826 m 467 826 l 467 1014 l 654 1014 l 654 826 l 467 826 z "},"å":{"ha":757,"x_min":76,"x_max":653,"o":"m 267 274 l 267 153 l 463 153 l 463 274 l 267 274 m 238 -7 l 76 86 l 76 326 l 238 419 l 463 419 l 463 532 l 146 532 l 146 694 l 492 694 l 653 601 l 653 -7 l 561 -7 l 463 50 l 364 -7 l 238 -7 m 621 857 l 507 792 l 283 792 l 169 857 l 169 1147 l 283 1213 l 507 1213 l 621 1147 l 621 857 m 315 1081 l 315 924 l 475 924 l 475 1081 l 315 1081 z "},"æ":{"ha":1143,"x_min":76,"x_max":1039,"o":"m 1039 163 l 1039 0 l 624 0 l 500 71 l 364 -7 l 238 -7 l 76 86 l 76 326 l 238 419 l 463 419 l 463 532 l 146 532 l 146 694 l 464 694 l 551 643 l 651 701 l 878 701 l 1039 608 l 1039 276 l 653 276 l 653 163 l 1039 163 m 267 274 l 267 153 l 463 153 l 463 274 l 267 274 m 653 539 l 653 419 l 849 419 l 849 539 l 653 539 z "},"ç":{"ha":715,"x_min":104,"x_max":639,"o":"m 364 0 l 265 0 l 104 93 l 104 601 l 265 694 l 639 694 l 639 532 l 294 532 l 294 163 l 639 163 l 639 0 l 493 0 l 456 -65 l 547 -118 l 547 -249 l 428 -318 l 275 -318 l 275 -207 l 413 -207 l 413 -144 l 281 -144 l 364 0 z "},"è":{"ha":785,"x_min":104,"x_max":681,"o":"m 681 163 l 681 0 l 265 0 l 104 93 l 104 608 l 265 701 l 519 701 l 681 608 l 681 276 l 294 276 l 294 163 l 681 163 m 294 539 l 294 419 l 490 419 l 490 539 l 294 539 m 424 997 l 554 819 l 388 819 l 188 997 l 424 997 z "},"é":{"ha":785,"x_min":104,"x_max":681,"o":"m 681 163 l 681 0 l 265 0 l 104 93 l 104 608 l 265 701 l 519 701 l 681 608 l 681 276 l 294 276 l 294 163 l 681 163 m 294 539 l 294 419 l 490 419 l 490 539 l 294 539 m 271 819 l 401 997 l 638 997 l 438 819 l 271 819 z "},"ê":{"ha":785,"x_min":104,"x_max":681,"o":"m 681 163 l 681 0 l 265 0 l 104 93 l 104 608 l 265 701 l 519 701 l 681 608 l 681 276 l 294 276 l 294 163 l 681 163 m 294 539 l 294 419 l 490 419 l 490 539 l 294 539 m 267 1025 l 531 1025 l 671 819 l 511 819 l 399 931 l 288 819 l 128 819 l 267 1025 z "},"ë":{"ha":785,"x_min":104,"x_max":681,"o":"m 681 163 l 681 0 l 265 0 l 104 93 l 104 608 l 265 701 l 519 701 l 681 608 l 681 276 l 294 276 l 294 163 l 681 163 m 294 539 l 294 419 l 490 419 l 490 539 l 294 539 m 143 826 l 143 1014 l 331 1014 l 331 826 l 143 826 m 475 826 l 475 1014 l 663 1014 l 663 826 l 475 826 z "},"ì":{"ha":399,"x_min":-56,"x_max":311,"o":"m 294 694 l 294 0 l 104 0 l 104 694 l 294 694 m 181 997 l 311 819 l 144 819 l -56 997 l 181 997 z "},"í":{"ha":399,"x_min":88,"x_max":454,"o":"m 294 694 l 294 0 l 104 0 l 104 694 l 294 694 m 88 819 l 218 997 l 454 997 l 254 819 l 88 819 z "},"î":{"ha":399,"x_min":-72,"x_max":471,"o":"m 294 694 l 294 0 l 104 0 l 104 694 l 294 694 m 67 1025 l 331 1025 l 471 819 l 311 819 l 199 931 l 88 819 l -72 819 l 67 1025 z "},"ï":{"ha":399,"x_min":-60,"x_max":460,"o":"m 294 694 l 294 0 l 104 0 l 104 694 l 294 694 m -60 826 l -60 1014 l 128 1014 l 128 826 l -60 826 m 272 826 l 272 1014 l 460 1014 l 460 826 l 272 826 z "},"ð":{"ha":896,"x_min":118,"x_max":860,"o":"m 778 756 l 860 756 l 860 625 l 778 625 l 778 86 l 617 -7 l 279 -7 l 118 86 l 118 483 l 279 576 l 485 576 l 583 519 l 583 625 l 435 625 l 435 756 l 583 756 l 583 813 l 279 813 l 279 979 l 617 979 l 778 886 l 778 756 m 583 160 l 583 410 l 313 410 l 313 160 l 583 160 z "},"ñ":{"ha":826,"x_min":104,"x_max":722,"o":"m 722 608 l 722 0 l 532 0 l 532 539 l 294 539 l 294 0 l 104 0 l 104 701 l 261 701 l 294 644 l 393 701 l 561 701 l 722 608 m 308 926 l 303 926 l 303 813 l 167 813 l 167 985 l 297 1061 l 336 1061 l 533 947 l 539 947 l 539 1061 l 675 1061 l 675 889 l 544 813 l 506 813 l 308 926 z "},"ò":{"ha":826,"x_min":104,"x_max":722,"o":"m 722 86 l 561 -7 l 265 -7 l 104 86 l 104 608 l 265 701 l 561 701 l 722 608 l 722 86 m 294 539 l 294 156 l 532 156 l 532 539 l 294 539 m 438 997 l 568 819 l 401 819 l 201 997 l 438 997 z "},"ó":{"ha":826,"x_min":104,"x_max":722,"o":"m 722 86 l 561 -7 l 265 -7 l 104 86 l 104 608 l 265 701 l 561 701 l 722 608 l 722 86 m 294 539 l 294 156 l 532 156 l 532 539 l 294 539 m 271 819 l 401 997 l 638 997 l 438 819 l 271 819 z "},"ô":{"ha":826,"x_min":104,"x_max":722,"o":"m 722 86 l 561 -7 l 265 -7 l 104 86 l 104 608 l 265 701 l 561 701 l 722 608 l 722 86 m 294 539 l 294 156 l 532 156 l 532 539 l 294 539 m 289 1025 l 553 1025 l 693 819 l 533 819 l 421 931 l 310 819 l 150 819 l 289 1025 z "},"õ":{"ha":826,"x_min":104,"x_max":722,"o":"m 722 86 l 561 -7 l 265 -7 l 104 86 l 104 608 l 265 701 l 561 701 l 722 608 l 722 86 m 294 539 l 294 156 l 532 156 l 532 539 l 294 539 m 308 926 l 303 926 l 303 813 l 167 813 l 167 985 l 297 1061 l 336 1061 l 533 947 l 539 947 l 539 1061 l 675 1061 l 675 889 l 544 813 l 506 813 l 308 926 z "},"ö":{"ha":826,"x_min":104,"x_max":722,"o":"m 722 86 l 561 -7 l 265 -7 l 104 86 l 104 608 l 265 701 l 561 701 l 722 608 l 722 86 m 294 539 l 294 156 l 532 156 l 532 539 l 294 539 m 160 826 l 160 1014 l 347 1014 l 347 826 l 160 826 m 492 826 l 492 1014 l 679 1014 l 679 826 l 492 826 z "},"÷":{"ha":847,"x_min":63,"x_max":785,"o":"m 785 454 l 785 282 l 63 282 l 63 454 l 785 454 m 306 -43 l 306 193 l 542 193 l 542 -43 l 306 -43 m 306 543 l 306 779 l 542 779 l 542 543 l 306 543 z "},"ø":{"ha":826,"x_min":104,"x_max":722,"o":"m 722 86 l 561 -7 l 265 -7 l 104 86 l 104 608 l 265 701 l 561 701 l 722 608 l 722 86 m 351 156 l 532 156 l 532 418 l 351 156 m 294 539 l 294 275 l 475 539 l 294 539 z "},"ù":{"ha":826,"x_min":104,"x_max":722,"o":"m 104 86 l 104 694 l 294 694 l 294 156 l 532 156 l 532 694 l 722 694 l 722 -7 l 565 -7 l 532 50 l 433 -7 l 265 -7 l 104 86 m 465 997 l 596 819 l 429 819 l 229 997 l 465 997 z "},"ú":{"ha":826,"x_min":104,"x_max":722,"o":"m 104 86 l 104 694 l 294 694 l 294 156 l 532 156 l 532 694 l 722 694 l 722 -7 l 565 -7 l 532 50 l 433 -7 l 265 -7 l 104 86 m 285 819 l 415 997 l 651 997 l 451 819 l 285 819 z "},"û":{"ha":826,"x_min":104,"x_max":722,"o":"m 104 86 l 104 694 l 294 694 l 294 156 l 532 156 l 532 694 l 722 694 l 722 -7 l 565 -7 l 532 50 l 433 -7 l 265 -7 l 104 86 m 289 1025 l 553 1025 l 693 819 l 533 819 l 421 931 l 310 819 l 150 819 l 289 1025 z "},"ü":{"ha":826,"x_min":104,"x_max":722,"o":"m 104 86 l 104 694 l 294 694 l 294 156 l 532 156 l 532 694 l 722 694 l 722 -7 l 565 -7 l 532 50 l 433 -7 l 265 -7 l 104 86 m 160 826 l 160 1014 l 347 1014 l 347 826 l 160 826 m 492 826 l 492 1014 l 679 1014 l 679 826 l 492 826 z "},"ý":{"ha":757,"x_min":21,"x_max":736,"o":"m 158 -278 l 286 49 l 21 694 l 211 694 l 382 286 l 385 286 l 546 694 l 736 694 l 346 -278 l 158 -278 m 257 819 l 388 997 l 624 997 l 424 819 l 257 819 z "},"þ":{"ha":813,"x_min":90,"x_max":722,"o":"m 90 1014 l 281 1014 l 281 644 l 379 701 l 561 701 l 722 608 l 722 86 l 561 -7 l 379 -7 l 281 50 l 281 -278 l 90 -278 l 90 1014 m 281 539 l 281 156 l 532 156 l 532 539 l 281 539 z "},"ÿ":{"ha":757,"x_min":21,"x_max":736,"o":"m 158 -278 l 286 49 l 21 694 l 211 694 l 382 286 l 385 286 l 546 694 l 736 694 l 346 -278 l 158 -278 m 132 826 l 132 1014 l 319 1014 l 319 826 l 132 826 m 464 826 l 464 1014 l 651 1014 l 651 826 l 464 826 z "},"ħ":{"ha":840,"x_min":14,"x_max":736,"o":"m 294 0 l 104 0 l 104 785 l 14 785 l 14 915 l 104 915 l 104 1014 l 294 1014 l 294 915 l 500 915 l 500 785 l 294 785 l 294 644 l 393 701 l 575 701 l 736 608 l 736 0 l 546 0 l 546 539 l 294 539 l 294 0 z "},"Ĩ":{"ha":431,"x_min":-39,"x_max":469,"o":"m 118 0 l 118 972 l 313 972 l 313 0 l 118 0 m 103 1204 l 97 1204 l 97 1090 l -39 1090 l -39 1263 l 92 1339 l 131 1339 l 328 1225 l 333 1225 l 333 1339 l 469 1339 l 469 1167 l 339 1090 l 300 1090 l 103 1204 z "},"ĩ":{"ha":399,"x_min":-54,"x_max":454,"o":"m 294 694 l 294 0 l 104 0 l 104 694 l 294 694 m 88 926 l 82 926 l 82 813 l -54 813 l -54 985 l 76 1061 l 115 1061 l 313 947 l 318 947 l 318 1061 l 454 1061 l 454 889 l 324 813 l 285 813 l 88 926 z "},"ı":{"ha":399,"x_min":104,"x_max":294,"o":"m 294 694 l 294 0 l 104 0 l 104 694 l 294 694 z "},"Ĳ":{"ha":1188,"x_min":118,"x_max":1069,"o":"m 118 0 l 118 972 l 313 972 l 313 0 l 118 0 m 875 160 l 875 972 l 1069 972 l 1069 86 l 908 -7 l 613 -7 l 451 86 l 451 354 l 646 354 l 646 160 l 875 160 z "},"ĳ":{"ha":797,"x_min":97,"x_max":700,"o":"m 294 694 l 294 0 l 104 0 l 104 694 l 294 694 m 97 824 l 97 1014 l 301 1014 l 301 824 l 97 824 m 496 824 l 496 1014 l 700 1014 l 700 824 l 496 824 m 693 694 l 693 -185 l 532 -278 l 364 -278 l 364 -115 l 503 -115 l 503 694 l 693 694 z "},"Ĵ":{"ha":757,"x_min":21,"x_max":817,"o":"m 444 160 l 444 972 l 639 972 l 639 86 l 478 -7 l 182 -7 l 21 86 l 21 354 l 215 354 l 215 160 l 444 160 m 413 1303 l 676 1303 l 817 1097 l 657 1097 l 544 1208 l 433 1097 l 274 1097 l 413 1303 z "},"ĵ":{"ha":399,"x_min":-72,"x_max":471,"o":"m 294 694 l 294 -185 l 133 -278 l -35 -278 l -35 -115 l 104 -115 l 104 694 l 294 694 m 67 1025 l 331 1025 l 471 819 l 311 819 l 199 931 l 88 819 l -72 819 l 67 1025 z "},"ķ":{"ha":765,"x_min":104,"x_max":772,"o":"m 294 1014 l 294 415 l 297 415 l 513 694 l 731 694 l 482 385 l 772 0 l 551 0 l 371 246 l 294 150 l 294 0 l 104 0 l 104 1014 l 294 1014 m 290 -510 l 290 -76 l 501 -76 l 501 -168 l 382 -510 l 290 -510 z "},"ĸ":{"ha":765,"x_min":104,"x_max":772,"o":"m 294 694 l 294 415 l 297 415 l 513 694 l 731 694 l 482 385 l 772 0 l 551 0 l 371 246 l 294 150 l 294 0 l 104 0 l 104 694 l 294 694 z "},"Ŀ":{"ha":694,"x_min":118,"x_max":644,"o":"m 118 0 l 118 972 l 313 972 l 313 167 l 644 167 l 644 0 l 118 0 m 443 325 l 443 511 l 629 511 l 629 325 l 443 325 z "},"ŀ":{"ha":671,"x_min":104,"x_max":615,"o":"m 265 0 l 104 93 l 104 1014 l 294 1014 l 294 163 l 433 163 l 433 0 l 265 0 m 429 325 l 429 511 l 615 511 l 615 325 l 429 325 z "},"Ł":{"ha":679,"x_min":21,"x_max":644,"o":"m 21 525 l 118 550 l 118 972 l 313 972 l 313 601 l 446 636 l 446 497 l 313 463 l 313 167 l 644 167 l 644 0 l 118 0 l 118 411 l 21 386 l 21 525 z "},"ł":{"ha":454,"x_min":21,"x_max":433,"o":"m 21 525 l 104 547 l 104 1014 l 294 1014 l 294 599 l 418 632 l 418 493 l 294 460 l 294 163 l 433 163 l 433 0 l 265 0 l 104 93 l 104 408 l 21 386 l 21 525 z "},"Ń":{"ha":1035,"x_min":118,"x_max":917,"o":"m 313 629 l 313 0 l 118 0 l 118 972 l 300 972 l 719 343 l 722 343 l 722 972 l 917 972 l 917 0 l 735 0 l 315 629 l 313 629 m 389 1097 l 519 1275 l 756 1275 l 556 1097 l 389 1097 z "},"ń":{"ha":826,"x_min":104,"x_max":722,"o":"m 722 608 l 722 0 l 532 0 l 532 539 l 294 539 l 294 0 l 104 0 l 104 701 l 261 701 l 294 644 l 393 701 l 561 701 l 722 608 m 229 819 l 360 997 l 596 997 l 396 819 l 229 819 z "},"Œ":{"ha":1325,"x_min":118,"x_max":1263,"o":"m 875 417 l 875 167 l 1263 167 l 1263 0 l 279 0 l 118 93 l 118 879 l 279 972 l 1263 972 l 1263 806 l 875 806 l 875 583 l 1179 583 l 1179 417 l 875 417 m 313 806 l 313 167 l 681 167 l 681 806 l 313 806 z "},"œ":{"ha":1213,"x_min":104,"x_max":1108,"o":"m 1108 163 l 1108 0 l 721 0 l 633 50 l 533 -7 l 265 -7 l 104 86 l 104 608 l 265 701 l 533 701 l 626 647 l 721 701 l 947 701 l 1108 608 l 1108 276 l 722 276 l 722 163 l 1108 163 m 294 539 l 294 156 l 532 156 l 532 539 l 294 539 m 722 539 l 722 419 l 918 419 l 918 539 l 722 539 z "},"Ŕ":{"ha":924,"x_min":118,"x_max":856,"o":"m 856 0 l 642 0 l 433 367 l 313 367 l 313 0 l 118 0 l 118 972 l 644 972 l 806 879 l 806 460 l 644 367 l 856 0 m 313 806 l 313 533 l 611 533 l 611 806 l 313 806 m 306 1097 l 436 1275 l 672 1275 l 472 1097 l 306 1097 z "},"Ŗ":{"ha":924,"x_min":118,"x_max":856,"o":"m 856 0 l 642 0 l 433 367 l 313 367 l 313 0 l 118 0 l 118 972 l 644 972 l 806 879 l 806 460 l 644 367 l 856 0 m 313 806 l 313 533 l 611 533 l 611 806 l 313 806 m 356 -510 l 356 -76 l 567 -76 l 567 -168 l 447 -510 l 356 -510 z "},"ŗ":{"ha":568,"x_min":104,"x_max":533,"o":"m 533 532 l 294 532 l 294 0 l 104 0 l 104 694 l 261 694 l 294 638 l 393 694 l 533 694 l 533 532 m 178 -510 l 178 -76 l 389 -76 l 389 -168 l 269 -510 l 178 -510 z "},"Ř":{"ha":924,"x_min":118,"x_max":856,"o":"m 856 0 l 642 0 l 433 367 l 313 367 l 313 0 l 118 0 l 118 972 l 644 972 l 806 879 l 806 460 l 644 367 l 856 0 m 313 806 l 313 533 l 611 533 l 611 806 l 313 806 m 594 1097 l 331 1097 l 190 1303 l 350 1303 l 463 1192 l 574 1303 l 733 1303 l 594 1097 z "},"ř":{"ha":568,"x_min":13,"x_max":556,"o":"m 533 532 l 294 532 l 294 0 l 104 0 l 104 694 l 261 694 l 294 638 l 393 694 l 533 694 l 533 532 m 417 819 l 153 819 l 13 1025 l 172 1025 l 285 914 l 396 1025 l 556 1025 l 417 819 z "},"Š":{"ha":910,"x_min":104,"x_max":792,"o":"m 118 493 l 118 886 l 279 979 l 631 979 l 792 886 l 792 701 l 597 701 l 597 813 l 313 813 l 313 581 l 631 581 l 792 488 l 792 86 l 631 -7 l 265 -7 l 104 86 l 104 271 l 299 271 l 299 160 l 597 160 l 597 400 l 279 400 l 118 493 m 586 1090 l 322 1090 l 182 1296 l 342 1296 l 454 1185 l 565 1296 l 725 1296 l 586 1090 z "},"š":{"ha":767,"x_min":104,"x_max":663,"o":"m 654 342 l 654 93 l 493 0 l 104 0 l 104 163 l 464 163 l 464 269 l 265 269 l 104 363 l 104 601 l 265 694 l 640 694 l 640 532 l 294 532 l 294 435 l 493 435 l 654 342 m 524 819 l 260 819 l 119 1025 l 279 1025 l 392 914 l 503 1025 l 663 1025 l 524 819 z "},"Ÿ":{"ha":863,"x_min":21,"x_max":842,"o":"m 333 0 l 333 415 l 21 972 l 232 972 l 429 608 l 432 608 l 631 972 l 842 972 l 528 414 l 528 0 l 333 0 m 178 1090 l 178 1278 l 365 1278 l 365 1090 l 178 1090 m 510 1090 l 510 1278 l 697 1278 l 697 1090 l 510 1090 z "},"Ž":{"ha":826,"x_min":63,"x_max":750,"o":"m 90 806 l 90 972 l 750 972 l 750 847 l 313 169 l 313 167 l 750 167 l 750 0 l 63 0 l 63 125 l 500 803 l 500 806 l 90 806 m 572 1090 l 308 1090 l 168 1296 l 328 1296 l 440 1185 l 551 1296 l 711 1296 l 572 1090 z "},"ž":{"ha":661,"x_min":49,"x_max":613,"o":"m 49 133 l 349 529 l 349 532 l 63 532 l 63 694 l 599 694 l 599 561 l 299 165 l 299 163 l 599 163 l 599 0 l 49 0 l 49 133 m 474 819 l 210 819 l 69 1025 l 229 1025 l 342 914 l 453 1025 l 613 1025 l 474 819 z "},"ƒ":{"ha":568,"x_min":24,"x_max":519,"o":"m 176 -114 l 176 532 l 49 532 l 49 694 l 176 694 l 176 921 l 338 1014 l 519 1014 l 519 851 l 367 851 l 367 694 l 519 694 l 519 532 l 367 532 l 367 -183 l 206 -276 l 24 -276 l 24 -114 l 176 -114 z "},"ˆ":{"ha":738,"x_min":97,"x_max":640,"o":"m 236 1025 l 500 1025 l 640 819 l 481 819 l 368 931 l 257 819 l 97 819 l 236 1025 z "},"ˇ":{"ha":738,"x_min":99,"x_max":642,"o":"m 503 819 l 239 819 l 99 1025 l 258 1025 l 371 914 l 482 1025 l 642 1025 l 503 819 z "},"˘":{"ha":735,"x_min":142,"x_max":593,"o":"m 447 1050 l 593 1050 l 593 871 l 479 806 l 256 806 l 142 871 l 142 1050 l 288 1050 l 288 924 l 447 924 l 447 1050 z "},"˙":{"ha":486,"x_min":111,"x_max":375,"o":"m 111 821 l 111 1085 l 375 1085 l 375 821 l 111 821 z "},"˚":{"ha":735,"x_min":142,"x_max":593,"o":"m 593 857 l 479 792 l 256 792 l 142 857 l 142 1147 l 256 1213 l 479 1213 l 593 1147 l 593 857 m 288 1081 l 288 924 l 447 924 l 447 1081 l 288 1081 z "},"˛":{"ha":722,"x_min":222,"x_max":500,"o":"m 371 0 l 371 -161 l 500 -161 l 500 -296 l 383 -296 l 222 -203 l 222 0 l 371 0 z "},"˜":{"ha":703,"x_min":97,"x_max":606,"o":"m 239 926 l 233 926 l 233 813 l 97 813 l 97 985 l 228 1061 l 267 1061 l 464 947 l 469 947 l 469 1061 l 606 1061 l 606 889 l 475 813 l 436 813 l 239 926 z "},"˝":{"ha":806,"x_min":92,"x_max":763,"o":"m 92 819 l 222 997 l 458 997 l 258 819 l 92 819 m 396 819 l 526 997 l 763 997 l 563 819 l 396 819 z "},"–":{"ha":981,"x_min":90,"x_max":890,"o":"m 90 275 l 90 451 l 890 451 l 890 275 l 90 275 z "},"—":{"ha":1367,"x_min":90,"x_max":1276,"o":"m 90 275 l 90 451 l 1276 451 l 1276 275 l 90 275 z "},"‘":{"ha":500,"x_min":118,"x_max":382,"o":"m 382 1014 l 382 472 l 118 472 l 118 586 l 268 1014 l 382 1014 z "},"’":{"ha":500,"x_min":118,"x_max":382,"o":"m 118 472 l 118 1014 l 382 1014 l 382 900 l 232 472 l 118 472 z "},"‚":{"ha":528,"x_min":132,"x_max":396,"o":"m 132 -278 l 132 264 l 396 264 l 396 150 l 246 -278 l 132 -278 z "},"“":{"ha":889,"x_min":118,"x_max":771,"o":"m 771 1014 l 771 472 l 507 472 l 507 586 l 657 1014 l 771 1014 m 382 1014 l 382 472 l 118 472 l 118 586 l 268 1014 l 382 1014 z "},"”":{"ha":889,"x_min":118,"x_max":771,"o":"m 118 472 l 118 1014 l 382 1014 l 382 900 l 232 472 l 118 472 m 507 472 l 507 1014 l 771 1014 l 771 900 l 621 472 l 507 472 z "},"„":{"ha":917,"x_min":132,"x_max":785,"o":"m 132 -278 l 132 264 l 396 264 l 396 150 l 246 -278 l 132 -278 m 521 -278 l 521 264 l 785 264 l 785 150 l 635 -278 l 521 -278 z "},"†":{"ha":851,"x_min":76,"x_max":775,"o":"m 499 589 l 513 -278 l 339 -278 l 353 589 l 76 575 l 76 749 l 353 735 l 339 1015 l 513 1015 l 499 735 l 775 749 l 775 575 l 499 589 z "},"‡":{"ha":851,"x_min":76,"x_max":775,"o":"m 508 369 l 499 149 l 775 163 l 775 -11 l 499 3 l 513 -278 l 339 -278 l 353 3 l 76 -11 l 76 163 l 353 149 l 343 369 l 353 589 l 76 575 l 76 749 l 353 735 l 339 1015 l 513 1015 l 499 735 l 775 749 l 775 575 l 499 589 l 508 369 z "},"•":{"ha":792,"x_min":132,"x_max":660,"o":"m 660 311 l 499 218 l 293 218 l 132 311 l 132 653 l 293 746 l 499 746 l 660 653 l 660 311 z "},"…":{"ha":1447,"x_min":132,"x_max":1315,"o":"m 132 0 l 132 264 l 396 264 l 396 0 l 132 0 m 592 0 l 592 264 l 856 264 l 856 0 l 592 0 m 1051 0 l 1051 264 l 1315 264 l 1315 0 l 1051 0 z "},"‰":{"ha":1953,"x_min":104,"x_max":1890,"o":"m 611 589 l 450 496 l 265 496 l 104 589 l 104 893 l 265 986 l 450 986 l 611 893 l 611 589 m 272 832 l 272 650 l 443 650 l 443 832 l 272 832 m 961 986 l 1142 986 l 429 -14 l 249 -14 l 961 986 m 779 383 l 940 476 l 1125 476 l 1286 383 l 1286 79 l 1125 -14 l 940 -14 l 779 79 l 779 383 m 1118 140 l 1118 322 l 947 322 l 947 140 l 1118 140 m 1383 383 l 1544 476 l 1729 476 l 1890 383 l 1890 79 l 1729 -14 l 1544 -14 l 1383 79 l 1383 383 m 1722 140 l 1722 322 l 1551 322 l 1551 140 l 1722 140 z "},"‹":{"ha":597,"x_min":118,"x_max":479,"o":"m 479 190 l 479 0 l 118 264 l 118 433 l 479 697 l 479 507 l 253 350 l 253 349 l 479 190 z "},"›":{"ha":597,"x_min":118,"x_max":479,"o":"m 118 0 l 118 190 l 344 349 l 344 350 l 118 507 l 118 697 l 479 433 l 479 264 l 118 0 z "},"⁄":{"ha":907,"x_min":7,"x_max":900,"o":"m 719 986 l 900 986 l 188 -14 l 7 -14 l 719 986 z "},"€":{"ha":950,"x_min":35,"x_max":846,"o":"m 632 654 l 557 524 l 336 524 l 336 449 l 514 449 l 439 318 l 336 318 l 336 160 l 651 160 l 651 285 l 846 285 l 846 86 l 685 -7 l 303 -7 l 142 86 l 142 318 l 35 318 l 35 449 l 142 449 l 142 524 l 35 524 l 35 654 l 142 654 l 142 886 l 303 979 l 685 979 l 846 886 l 846 688 l 651 688 l 651 813 l 336 813 l 336 654 l 632 654 z "},"™":{"ha":1182,"x_min":90,"x_max":1064,"o":"m 942 453 l 942 690 l 939 690 l 843 453 l 738 453 l 644 690 l 642 690 l 642 453 l 518 453 l 518 972 l 664 972 l 792 651 l 794 651 l 919 972 l 1064 972 l 1064 453 l 942 453 m 344 849 l 344 453 l 219 453 l 219 849 l 90 849 l 90 972 l 472 972 l 472 849 l 344 849 z "},"∂":{"ha":896,"x_min":118,"x_max":778,"o":"m 583 813 l 279 813 l 279 979 l 617 979 l 778 886 l 778 86 l 617 -7 l 279 -7 l 118 86 l 118 483 l 279 576 l 485 576 l 583 519 l 583 813 m 583 160 l 583 410 l 313 410 l 313 160 l 583 160 z "},"−":{"ha":847,"x_min":63,"x_max":785,"o":"m 785 454 l 785 268 l 63 268 l 63 454 l 785 454 z "},"∞":{"ha":1250,"x_min":118,"x_max":1132,"o":"m 313 553 l 313 310 l 528 310 l 528 553 l 313 553 m 722 553 l 722 310 l 938 310 l 938 553 l 722 553 m 1132 236 l 971 143 l 786 143 l 625 236 l 464 143 l 279 143 l 118 236 l 118 626 l 279 719 l 464 719 l 625 626 l 786 719 l 971 719 l 1132 626 l 1132 236 z "},"≈":{"ha":1017,"x_min":118,"x_max":899,"o":"m 385 156 l 281 156 l 281 42 l 118 42 l 118 225 l 279 318 l 436 318 l 632 204 l 736 204 l 736 318 l 899 318 l 899 135 l 738 42 l 581 42 l 385 156 m 385 483 l 281 483 l 281 369 l 118 369 l 118 553 l 279 646 l 436 646 l 632 532 l 736 532 l 736 646 l 899 646 l 899 463 l 738 369 l 581 369 l 385 483 z "},"≠":{"ha":958,"x_min":118,"x_max":840,"o":"m 840 592 l 840 419 l 613 419 l 499 275 l 840 275 l 840 103 l 364 103 l 271 -15 l 118 -15 l 211 103 l 118 103 l 118 275 l 346 275 l 460 419 l 118 419 l 118 592 l 594 592 l 688 710 l 840 710 l 747 592 l 840 592 z "},"≤":{"ha":958,"x_min":118,"x_max":840,"o":"m 840 804 l 840 626 l 344 515 l 344 513 l 840 401 l 840 224 l 118 404 l 118 624 l 840 804 m 840 172 l 840 0 l 118 0 l 118 172 l 840 172 z "},"≥":{"ha":958,"x_min":118,"x_max":840,"o":"m 118 626 l 118 804 l 840 624 l 840 404 l 118 224 l 118 401 l 614 513 l 614 515 l 118 626 m 118 0 l 118 172 l 840 172 l 840 0 l 118 0 z "},"":{"ha":826,"x_min":104,"x_max":722,"o":"m 532 156 l 532 539 l 294 539 l 294 156 l 532 156 m 722 701 l 722 -7 l 631 -7 l 532 50 l 433 -7 l 265 -7 l 104 86 l 104 608 l 265 701 l 433 701 l 532 644 l 631 701 l 722 701 z "},"":{"ha":840,"x_min":104,"x_max":736,"o":"m 736 -185 l 575 -278 l 197 -278 l 197 -115 l 546 -115 l 546 78 l 447 21 l 265 21 l 104 114 l 104 608 l 265 701 l 447 701 l 546 644 l 644 701 l 736 701 l 736 -185 m 546 183 l 546 539 l 294 539 l 294 183 l 546 183 z "},"":{"ha":399,"x_min":104,"x_max":294,"o":"m 294 0 l 104 0 l 104 1014 l 294 1014 l 294 0 z "},"":{"ha":399,"x_min":-35,"x_max":294,"o":"m 294 694 l 294 -185 l 133 -278 l -35 -278 l -35 -115 l 104 -115 l 104 694 l 294 694 z "},"":{"ha":489,"x_min":139,"x_max":350,"o":"m 139 -510 l 139 -76 l 350 -76 l 350 -168 l 231 -510 l 139 -510 z "},"":{"ha":1244,"x_min":111,"x_max":1133,"o":"m 903 71 q 621 -12 769 -12 q 260 138 410 -12 q 111 501 111 288 q 172 742 111 636 q 299 849 232 849 q 365 778 365 849 q 324 551 365 732 q 283 368 283 371 q 308 353 283 353 q 387 365 333 353 q 446 389 440 378 q 467 483 446 392 q 500 633 488 575 q 528 823 528 774 q 483 901 528 872 q 371 929 439 929 l 344 926 l 342 931 q 621 1014 472 1014 q 984 864 835 1014 q 1133 500 1133 714 q 1073 259 1133 365 q 946 153 1013 153 q 879 224 879 153 q 920 450 879 269 q 961 632 961 631 q 936 649 961 649 q 858 636 911 649 q 799 613 804 624 q 778 518 799 610 q 744 368 757 426 q 717 178 717 228 q 761 101 717 129 q 874 72 806 72 l 900 74 l 903 71 m 661 325 q 710 542 679 399 q 740 698 740 686 q 716 710 740 710 q 647 700 692 710 q 583 676 601 690 q 535 459 565 603 q 504 303 504 315 q 528 290 504 290 q 597 301 551 290 q 661 325 643 311 z "},"":{"ha":1192,"x_min":111,"x_max":1081,"o":"m 214 149 q 111 488 111 326 q 185 753 111 649 q 388 858 260 858 q 510 838 436 858 q 609 817 583 817 q 706 840 635 817 q 826 864 776 864 q 975 819 910 864 q 1047 750 1017 788 q 953 646 985 696 q 922 516 922 596 q 969 368 922 436 q 1081 281 1017 300 q 994 107 1051 192 q 815 -29 904 -29 q 719 -7 779 -29 q 616 15 660 15 q 514 -8 572 15 q 422 -32 456 -32 q 214 149 315 -32 m 818 1097 q 733 906 818 990 q 673 861 700 872 q 586 844 646 850 q 814 1126 589 1074 q 818 1097 818 1114 z "},"ﬁ":{"ha":967,"x_min":49,"x_max":869,"o":"m 49 532 l 49 694 l 176 694 l 176 921 l 338 1014 l 869 1014 l 869 851 l 367 851 l 367 694 l 561 694 l 561 532 l 367 532 l 367 0 l 176 0 l 176 532 l 49 532 m 863 694 l 863 0 l 672 0 l 672 694 l 863 694 z "},"ﬂ":{"ha":1022,"x_min":49,"x_max":1001,"o":"m 833 0 l 672 93 l 672 851 l 367 851 l 367 694 l 561 694 l 561 532 l 367 532 l 367 0 l 176 0 l 176 532 l 49 532 l 49 694 l 176 694 l 176 921 l 338 1014 l 863 1014 l 863 163 l 1001 163 l 1001 0 l 833 0 z "},"ﬃ":{"ha":1535,"x_min":49,"x_max":1438,"o":"m 367 532 l 367 0 l 176 0 l 176 532 l 49 532 l 49 694 l 176 694 l 176 921 l 338 1014 l 589 1014 l 589 851 l 367 851 l 367 694 l 717 694 l 717 921 l 878 1014 l 1438 1014 l 1438 851 l 907 851 l 907 694 l 1129 694 l 1129 532 l 907 532 l 907 0 l 717 0 l 717 532 l 367 532 m 1431 694 l 1431 0 l 1240 0 l 1240 694 l 1431 694 z "},"ﬄ":{"ha":1590,"x_min":49,"x_max":1569,"o":"m 1401 0 l 1240 93 l 1240 851 l 935 851 l 935 694 l 1115 694 l 1115 532 l 935 532 l 935 0 l 744 0 l 744 532 l 367 532 l 367 0 l 176 0 l 176 532 l 49 532 l 49 694 l 176 694 l 176 921 l 338 1014 l 603 1014 l 603 851 l 367 851 l 367 694 l 744 694 l 744 921 l 906 1014 l 1431 1014 l 1431 163 l 1569 163 l 1569 0 l 1401 0 z "},"ﬆ":{"ha":1306,"x_min":104,"x_max":1229,"o":"m 654 342 l 654 93 l 493 0 l 104 0 l 104 163 l 464 163 l 464 269 l 265 269 l 104 363 l 104 601 l 265 694 l 886 694 l 886 811 l 1076 921 l 1076 694 l 1229 694 l 1229 532 l 1076 532 l 1076 163 l 1229 163 l 1229 0 l 1047 0 l 886 93 l 886 532 l 294 532 l 294 435 l 493 435 l 654 342 z "},"﬇":{"ha":967,"x_min":49,"x_max":869,"o":"m 863 694 l 863 -185 l 701 -278 l 533 -278 l 533 -115 l 672 -115 l 672 694 l 863 694 m 49 532 l 49 694 l 176 694 l 176 921 l 338 1014 l 869 1014 l 869 851 l 367 851 l 367 694 l 519 694 l 519 532 l 367 532 l 367 0 l 176 0 l 176 532 l 49 532 z "},"﬈":{"ha":1261,"x_min":104,"x_max":1185,"o":"m 294 532 l 294 163 l 639 163 l 639 0 l 265 0 l 104 93 l 104 601 l 265 694 l 842 694 l 842 811 l 1032 921 l 1032 694 l 1185 694 l 1185 532 l 1032 532 l 1032 163 l 1185 163 l 1185 0 l 1003 0 l 842 93 l 842 532 l 294 532 z "}}}
